# xmcd
#
# Track frame offsets:
#	150
#	11431
#	21523
#	28988
#	40435
#	49158
#	56479
#	63634
#	77766
#	92931
#	102275
#	116777
#	130190
#	143323
#	154148
#	169754
#	180445
#	197195
#	208982
#	221612
#	233590
#	244626
#	251295
#	258004
#
# Disc length: 3588 seconds
#
# Revision: 1
# Processed by: cddbd v1.4PL0 Copyright (c) Steve Scherf et al.
# Submitted via: EasyCDDAExtractor 5.0.6
#
DISCID=500e0218
DTITLE=Buffalo Gil's - Guitare solo
DYEAR=1900
DGENRE=Country
TTITLE0=Saturday night shuffle
TTITLE1=Romance
TTITLE2=Sarabande
TTITLE3=Elle écoute pousser les fleurs
TTITLE4=Natalia
TTITLE5=Jolie bouteille
TTITLE6=A la claire fontaine
TTITLE7=The shadow of your smile
TTITLE8=Blue bell
TTITLE9=La valse de l'aube
TTITLE10=Medley blues
TTITLE11=The girl from Ipanama
TTITLE12=Love me tender
TTITLE13=Nivram
TTITLE14=Le renard à l'anneau d'or
TTITLE15=Blue bossa
TTITLE16=The entertrainer
TTITLE17=Croque note
TTITLE18=Cheek to cheek
TTITLE19=Le derviche tourneur
TTITLE20=April in Portugal
TTITLE21=Kicky
TTITLE22=Patess blues
TTITLE23=Windy and warm
EXTD=
EXTT0=
EXTT1=
EXTT2=
EXTT3=
EXTT4=
EXTT5=
EXTT6=
EXTT7=
EXTT8=
EXTT9=
EXTT10=
EXTT11=
EXTT12=
EXTT13=
EXTT14=
EXTT15=
EXTT16=
EXTT17=
EXTT18=
EXTT19=
EXTT20=
EXTT21=
EXTT22=
EXTT23=
PLAYORDER=
